<svg width="199" height="46" viewBox="0 0 199 46" fill="none" xmlns="http://www.w3.org/2000/svg">
<path d="M28.7107 12.0031C28.2112 11.8415 27.7563 11.5657 27.382 11.1977C27.0077 10.8296 26.7244 10.3794 26.5544 9.88277L24.2185 2.64496C24.1712 2.50116 24.0797 2.37595 23.9571 2.28719C23.8345 2.19842 23.687 2.15063 23.5357 2.15063C23.3843 2.15063 23.2368 2.19842 23.1142 2.28719C22.9916 2.37595 22.9001 2.50116 22.8528 2.64496L20.4091 9.88277C20.2413 10.3748 19.9629 10.8217 19.5953 11.1893C19.2278 11.5569 18.7808 11.8353 18.2888 12.0031L11.051 14.4109C10.9072 14.4582 10.782 14.5496 10.6932 14.6722C10.6044 14.7948 10.5566 14.9423 10.5566 15.0937C10.5566 15.2451 10.6044 15.3926 10.6932 15.5152C10.782 15.6378 10.9072 15.7293 11.051 15.7765L18.2888 18.1843C18.7816 18.3507 19.2293 18.6286 19.5971 18.9963C19.9649 19.3641 20.2427 19.8118 20.4091 20.3046L22.8169 27.5425C22.8642 27.6863 22.9556 27.8115 23.0782 27.9002C23.2008 27.989 23.3483 28.0368 23.4997 28.0368C23.6511 28.0368 23.7986 27.989 23.9212 27.9002C24.0438 27.8115 24.1353 27.6863 24.1825 27.5425L26.5903 20.3046C26.7603 19.808 27.0437 19.3578 27.418 18.9897C27.7922 18.6217 28.2472 18.3459 28.7466 18.1843L35.9485 15.8125C36.0923 15.7652 36.2175 15.6737 36.3062 15.5511C36.395 15.4285 36.4428 15.281 36.4428 15.1296C36.4428 14.9783 36.395 14.8308 36.3062 14.7082C36.2175 14.5856 36.0923 14.4941 35.9485 14.4468L28.7107 12.0031ZM28.2578 16.8259C27.5533 17.0609 26.9131 17.4567 26.3879 17.9819C25.8627 18.5071 25.467 19.1473 25.2319 19.8518L23.4997 25.0412L21.7747 19.8518C21.5374 19.1465 21.1401 18.5057 20.6139 17.9795C20.0877 17.4533 19.4469 17.056 18.7416 16.8187L13.5522 15.0937L18.7416 13.3615C19.4456 13.1255 20.0853 12.7294 20.6103 12.2043C21.1354 11.6793 21.5315 11.0396 21.7675 10.3356L23.4997 5.14621L25.2247 10.3356C25.462 11.0401 25.8594 11.68 26.3856 12.205C26.9119 12.7301 27.5528 13.1259 28.2578 13.3615L33.4472 15.0937L28.2578 16.8259ZM45.2922 33.8171L40.1819 32.1137C39.8659 32.0077 39.5787 31.8298 39.343 31.5941C39.1073 31.3584 38.9295 31.0713 38.8235 30.7553L37.156 25.645C37.1087 25.5012 37.0172 25.376 36.8946 25.2872C36.772 25.1984 36.6245 25.1506 36.4732 25.1506C36.3218 25.1506 36.1743 25.1984 36.0517 25.2872C35.9291 25.376 35.8376 25.5012 35.7903 25.645L34.0869 30.7553C33.9809 31.0713 33.803 31.3584 33.5673 31.5941C33.3316 31.8298 33.0445 32.0077 32.7285 32.1137L27.6182 33.8171C27.4744 33.8644 27.3491 33.9559 27.2604 34.0785C27.1716 34.2011 27.1238 34.3486 27.1238 34.5C27.1238 34.6513 27.1716 34.7988 27.2604 34.9214C27.3491 35.044 27.4744 35.1355 27.6182 35.1828L32.7285 36.8862C33.0445 36.9922 33.3316 37.1701 33.5673 37.4058C33.803 37.6415 33.9809 37.9286 34.0869 38.2446L35.7903 43.355C35.8376 43.4988 35.9291 43.624 36.0517 43.7127C36.1743 43.8015 36.3218 43.8493 36.4732 43.8493C36.6245 43.8493 36.772 43.8015 36.8946 43.7127C37.0172 43.624 37.1087 43.4988 37.156 43.355L38.8522 38.2446C38.959 37.9279 39.1379 37.6402 39.3749 37.4045C39.6119 37.1687 39.9005 36.9913 40.2178 36.8862L45.2922 35.2187C45.436 35.1714 45.5612 35.08 45.65 34.9574C45.7387 34.8348 45.7865 34.6873 45.7865 34.5359C45.7865 34.3845 45.7387 34.237 45.65 34.1144C45.5612 33.9918 45.436 33.9003 45.2922 33.8531V33.8171ZM39.7291 35.5206C39.2003 35.6971 38.7198 35.9941 38.3256 36.3883C37.9314 36.7825 37.6343 37.263 37.4578 37.7918L36.4372 40.8537L35.4166 37.7918C35.2401 37.263 34.943 36.7825 34.5488 36.3883C34.1546 35.9941 33.6741 35.6971 33.1453 35.5206L30.0835 34.5L33.1453 33.4793C33.6741 33.3029 34.1546 33.0058 34.5488 32.6116C34.943 32.2174 35.2401 31.7369 35.4166 31.2081L36.4372 28.1462L37.4578 31.2081C37.6343 31.7369 37.9314 32.2174 38.3256 32.6116C38.7198 33.0058 39.2003 33.3029 39.7291 33.4793L42.791 34.5L39.7291 35.5206ZM8.17596 38.2446L9.8794 43.355C9.92666 43.4988 10.0181 43.624 10.1407 43.7127C10.2633 43.8015 10.4108 43.8493 10.5622 43.8493C10.7136 43.8493 10.8611 43.8015 10.9837 43.7127C11.1063 43.624 11.1978 43.4988 11.245 43.355L12.9413 38.2446C13.048 37.9279 13.227 37.6402 13.464 37.4045C13.701 37.1687 13.9895 36.9913 14.3069 36.8862L19.4172 35.2187C19.561 35.1714 19.6862 35.08 19.775 34.9574C19.8637 34.8348 19.9115 34.6873 19.9115 34.5359C19.9115 34.3845 19.8637 34.237 19.775 34.1144C19.6862 33.9918 19.561 33.9003 19.4172 33.8531L14.3069 32.1496C13.9909 32.0436 13.7037 31.8658 13.468 31.6301C13.2323 31.3944 13.0545 31.1072 12.9485 30.7912L11.281 25.645C11.2337 25.5012 11.1422 25.376 11.0196 25.2872C10.897 25.1984 10.7495 25.1506 10.5981 25.1506C10.4468 25.1506 10.2993 25.1984 10.1767 25.2872C10.0541 25.376 9.9626 25.5012 9.91534 25.645L8.2119 30.7553C8.10588 31.0713 7.92803 31.3584 7.69233 31.5941C7.45662 31.8298 7.16948 32.0077 6.85346 32.1137L1.70721 33.8171C1.56341 33.8644 1.43821 33.9559 1.34944 34.0785C1.26068 34.2011 1.21289 34.3486 1.21289 34.5C1.21289 34.6513 1.26068 34.7988 1.34944 34.9214C1.43821 35.044 1.56341 35.1355 1.70721 35.1828L6.81752 36.8862C7.13355 36.9922 7.42069 37.1701 7.65639 37.4058C7.89209 37.6415 8.06994 37.9286 8.17596 38.2446ZM7.27034 33.4793C7.79914 33.3029 8.27964 33.0058 8.67383 32.6116C9.06803 32.2174 9.36511 31.7369 9.54159 31.2081L10.5622 28.1462L11.5828 31.2081C11.7593 31.7369 12.0564 32.2174 12.4506 32.6116C12.8448 33.0058 13.3253 33.3029 13.8541 33.4793L16.916 34.5L13.8541 35.5206C13.3253 35.6971 12.8448 35.9941 12.4506 36.3883C12.0564 36.7825 11.7593 37.263 11.5828 37.7918L10.5622 40.8537L9.54159 37.7918C9.36511 37.263 9.06803 36.7825 8.67383 36.3883C8.27964 35.9941 7.79914 35.6971 7.27034 35.5206L4.20846 34.5L7.27034 33.4793Z" fill="#FFC105"/>
<path d="M23.0821 2.50897L26.4705 11.666L35.6275 15.0544L26.4705 18.4428L23.0821 27.5999L19.6937 18.4428L10.5366 15.0544L19.6937 11.666L23.0821 2.50897Z" fill="#FFC105"/>
<path d="M10.5362 26.7635L12.7952 32.8682L18.8999 35.1272L12.7952 37.3861L10.5362 43.4908L8.2773 37.3861L2.17261 35.1272L8.2773 32.8682L10.5362 26.7635Z" fill="#FFC105"/>
<path d="M35.6271 25.9272L37.886 32.0319L43.9907 34.2909L37.886 36.5498L35.6271 42.6545L33.3681 36.5498L27.2634 34.2909L33.3681 32.0319L35.6271 25.9272Z" fill="#FFC105"/>
<path d="M60.356 33.308C58.732 33.308 57.2947 32.9627 56.044 32.272C54.812 31.5813 53.8413 30.6293 53.132 29.416C52.4413 28.184 52.096 26.784 52.096 25.216V13.232H56.52V25.468C56.52 26.252 56.688 26.9333 57.024 27.512C57.36 28.0907 57.8173 28.5387 58.396 28.856C58.9933 29.1547 59.6467 29.304 60.356 29.304C61.1027 29.304 61.756 29.1547 62.316 28.856C62.876 28.5387 63.3147 28.1 63.632 27.54C63.968 26.9613 64.136 26.28 64.136 25.496V13.232H68.56V25.244C68.56 26.812 68.2147 28.2027 67.524 29.416C66.8333 30.6293 65.872 31.5813 64.64 32.272C63.408 32.9627 61.98 33.308 60.356 33.308ZM71.6722 33V12.672H75.9562V33H71.6722ZM80.9049 33V13.764H85.1889V33H80.9049ZM77.8249 23.032V19.392H88.2689V23.032H77.8249ZM90.1565 33V19.392H94.4405V33H90.1565ZM94.4405 25.524L92.6485 24.124C93.0032 22.5373 93.6005 21.3053 94.4405 20.428C95.2805 19.5507 96.4472 19.112 97.9405 19.112C98.5939 19.112 99.1632 19.2147 99.6485 19.42C100.153 19.6067 100.591 19.9053 100.965 20.316L98.4165 23.536C98.2299 23.3307 97.9965 23.172 97.7165 23.06C97.4365 22.948 97.1192 22.892 96.7645 22.892C96.0552 22.892 95.4859 23.116 95.0565 23.564C94.6459 23.9933 94.4405 24.6467 94.4405 25.524ZM107.407 33.28C106.156 33.28 105.036 32.972 104.047 32.356C103.076 31.74 102.302 30.9 101.723 29.836C101.163 28.772 100.883 27.5587 100.883 26.196C100.883 24.8333 101.163 23.62 101.723 22.556C102.302 21.492 103.076 20.652 104.047 20.036C105.036 19.42 106.156 19.112 107.407 19.112C108.322 19.112 109.143 19.2893 109.871 19.644C110.618 19.9987 111.224 20.4933 111.691 21.128C112.158 21.744 112.419 22.4533 112.475 23.256V29.136C112.419 29.9387 112.158 30.6573 111.691 31.292C111.243 31.908 110.646 32.3933 109.899 32.748C109.152 33.1027 108.322 33.28 107.407 33.28ZM108.275 29.416C109.19 29.416 109.927 29.1173 110.487 28.52C111.047 27.904 111.327 27.1293 111.327 26.196C111.327 25.5613 111.196 25.0013 110.935 24.516C110.692 24.0307 110.338 23.6573 109.871 23.396C109.423 23.116 108.9 22.976 108.303 22.976C107.706 22.976 107.174 23.116 106.707 23.396C106.259 23.6573 105.895 24.0307 105.615 24.516C105.354 25.0013 105.223 25.5613 105.223 26.196C105.223 26.812 105.354 27.3627 105.615 27.848C105.876 28.3333 106.24 28.716 106.707 28.996C107.174 29.276 107.696 29.416 108.275 29.416ZM111.159 33V29.332L111.803 26.028L111.159 22.724V19.392H115.359V33H111.159ZM128.147 33.308C126.673 33.308 125.301 33.056 124.031 32.552C122.781 32.0293 121.679 31.3013 120.727 30.368C119.794 29.4347 119.066 28.352 118.543 27.12C118.021 25.8693 117.759 24.5253 117.759 23.088C117.759 21.6507 118.021 20.316 118.543 19.084C119.066 17.8333 119.794 16.7507 120.727 15.836C121.661 14.9213 122.753 14.212 124.003 13.708C125.273 13.1853 126.645 12.924 128.119 12.924C129.687 12.924 131.078 13.176 132.291 13.68C133.523 14.184 134.597 14.8747 135.511 15.752L132.571 18.72C132.049 18.16 131.414 17.7213 130.667 17.404C129.939 17.0867 129.09 16.928 128.119 16.928C127.261 16.928 126.467 17.0773 125.739 17.376C125.03 17.656 124.414 18.0667 123.891 18.608C123.387 19.1493 122.986 19.8027 122.687 20.568C122.407 21.3333 122.267 22.1733 122.267 23.088C122.267 24.0213 122.407 24.8707 122.687 25.636C122.986 26.4013 123.387 27.0547 123.891 27.596C124.414 28.1373 125.03 28.5573 125.739 28.856C126.467 29.1547 127.261 29.304 128.119 29.304C129.127 29.304 130.005 29.1453 130.751 28.828C131.498 28.5107 132.142 28.072 132.683 27.512L135.651 30.48C134.699 31.3573 133.607 32.048 132.375 32.552C131.162 33.056 129.753 33.308 128.147 33.308ZM137.68 33V12.672H141.964V33H137.68ZM151.701 33.308C150.226 33.308 148.91 33.0093 147.753 32.412C146.614 31.796 145.718 30.9467 145.065 29.864C144.411 28.7813 144.085 27.5587 144.085 26.196C144.085 24.8333 144.402 23.62 145.037 22.556C145.69 21.4733 146.567 20.624 147.669 20.008C148.77 19.392 150.011 19.084 151.393 19.084C152.737 19.084 153.922 19.3733 154.949 19.952C155.975 20.5307 156.778 21.3333 157.357 22.36C157.954 23.3867 158.253 24.5627 158.253 25.888C158.253 26.1307 158.234 26.392 158.197 26.672C158.178 26.9333 158.131 27.2413 158.057 27.596L146.325 27.624V24.684L156.237 24.656L154.389 25.888C154.37 25.104 154.249 24.46 154.025 23.956C153.801 23.4333 153.465 23.0413 153.017 22.78C152.587 22.5 152.055 22.36 151.421 22.36C150.749 22.36 150.161 22.5187 149.657 22.836C149.171 23.1347 148.789 23.564 148.509 24.124C148.247 24.684 148.117 25.3653 148.117 26.168C148.117 26.9707 148.257 27.6613 148.537 28.24C148.835 28.8 149.246 29.2387 149.769 29.556C150.31 29.8547 150.945 30.004 151.673 30.004C152.345 30.004 152.951 29.892 153.493 29.668C154.034 29.4253 154.51 29.0707 154.921 28.604L157.273 30.956C156.601 31.74 155.789 32.328 154.837 32.72C153.885 33.112 152.839 33.308 151.701 33.308ZM166.005 33.28C164.754 33.28 163.634 32.972 162.645 32.356C161.674 31.74 160.899 30.9 160.321 29.836C159.761 28.772 159.481 27.5587 159.481 26.196C159.481 24.8333 159.761 23.62 160.321 22.556C160.899 21.492 161.674 20.652 162.645 20.036C163.634 19.42 164.754 19.112 166.005 19.112C166.919 19.112 167.741 19.2893 168.469 19.644C169.215 19.9987 169.822 20.4933 170.289 21.128C170.755 21.744 171.017 22.4533 171.073 23.256V29.136C171.017 29.9387 170.755 30.6573 170.289 31.292C169.841 31.908 169.243 32.3933 168.497 32.748C167.75 33.1027 166.919 33.28 166.005 33.28ZM166.873 29.416C167.787 29.416 168.525 29.1173 169.085 28.52C169.645 27.904 169.925 27.1293 169.925 26.196C169.925 25.5613 169.794 25.0013 169.533 24.516C169.29 24.0307 168.935 23.6573 168.469 23.396C168.021 23.116 167.498 22.976 166.901 22.976C166.303 22.976 165.771 23.116 165.305 23.396C164.857 23.6573 164.493 24.0307 164.213 24.516C163.951 25.0013 163.821 25.5613 163.821 26.196C163.821 26.812 163.951 27.3627 164.213 27.848C164.474 28.3333 164.838 28.716 165.305 28.996C165.771 29.276 166.294 29.416 166.873 29.416ZM169.757 33V29.332L170.401 26.028L169.757 22.724V19.392H173.957V33H169.757ZM185.961 33V25.244C185.961 24.5347 185.737 23.9653 185.289 23.536C184.86 23.088 184.309 22.864 183.637 22.864C183.17 22.864 182.76 22.9667 182.405 23.172C182.05 23.3587 181.77 23.6387 181.565 24.012C181.36 24.3667 181.257 24.7773 181.257 25.244L179.605 24.432C179.605 23.368 179.838 22.4347 180.305 21.632C180.772 20.8293 181.416 20.2133 182.237 19.784C183.077 19.336 184.02 19.112 185.065 19.112C186.073 19.112 186.96 19.3547 187.725 19.84C188.509 20.3067 189.125 20.932 189.573 21.716C190.021 22.5 190.245 23.3587 190.245 24.292V33H185.961ZM176.973 33V19.392H181.257V33H176.973Z" fill="#01254A"/>
</svg>
